<?xml version="1.0" encoding="utf-8"?>
<!DOCTYPE svg PUBLIC "-//W3C//DTD SVG 1.0//EN" "http://www.w3.org/TR/2001/REC-SVG-20010904/DTD/svg10.dtd">
<svg version="1.0" xmlns="http://www.w3.org/2000/svg" width="334px" height="334px" viewBox="0 0 334 334" preserveAspectRatio="xMidYMid meet">
 <g fill="#ffffff">
  <path d="M152.5 330.9 c-69 -5.4 -127.5 -56.9 -142.9 -125.9 -21.6 -96.8 46.7 -190.7 144.1 -197.9 78 -5.9 149.3 48 166.7 125.9 19.8 89 -36.5 177.3 -124.8 195.4 -6.4 1.4 -30.7 3.9 -32.6 3.4 -0.3 0 -5 -0.4 -10.5 -0.9z m38 -18 c37.7 -7.6 70.3 -29.6 92.1 -62.1 19 -28.2 28.6 -63.7 25.5 -94.1 -5 -48.4 -30.4 -89.9 -70.1 -114.8 -5 -3.1 -10.4 -5.9 -11.5 -5.9 -0.3 0 -0.5 6.7 -0.5 14.8 l0 14.8 6.7 5 c15 10.9 28 26.9 36.2 44.5 14.7 31.3 14.7 74.4 0.1 105.6 -14.1 30.2 -39.6 52.7 -70.1 61.8 -20.3 6 -49.1 5.9 -69 -0.4 -29.6 -9.3 -54.3 -30.9 -68.1 -59.6 l-4 -8.5 -14.4 0 -14.4 0 2.4 6.3 c12.6 33.5 40 64.2 71.7 80.2 13.2 6.7 32.4 12.5 48.1 14.5 10.1 1.2 27.4 0.3 39.3 -2.1z m-9.2 -56.8 c8.5 -2.9 14.5 -6.9 21.9 -14.2 7.6 -7.7 12 -15.5 14.9 -26.7 1.8 -7 1.9 -11.5 1.9 -66.9 l0 -59.3 -14.5 0 -14.4 0 -0.3 62.8 c-0.3 58.2 -0.4 62.9 -2.1 66 -2.6 4.8 -8.6 10.1 -12.7 11.2 -5.5 1.5 -15.8 1.2 -19.6 -0.6 -4.4 -2.1 -9.8 -7.5 -11.4 -11.4 l-1.2 -3 -14 0 -14 0 0.6 3.3 c0.3 1.7 2.2 6.4 4.1 10.4 7 14.9 23.7 27.5 40.5 30.7 4.4 0.8 14.6 -0.4 20.3 -2.3z m-131.3 -90.8 c0 -33.9 15.4 -68 40.2 -89 10.1 -8.6 16.2 -12.3 20.2 -12.3 l3.6 0 0 54.5 0 54.5 14.5 0 14.5 0 0 -61 0 -61 2.8 -0.7 c1.5 -0.5 10.9 -0.8 21 -0.8 l18.2 0 0 -13.7 0 -13.7 -4.7 -0.8 c-2.7 -0.4 -10.4 -0.7 -17.3 -0.7 -36.7 0.4 -74.1 17.4 -100.4 45.6 -23.1 24.7 -36.8 54.9 -40.5 89 -0.6 5.4 -1.1 11.5 -1.1 13.8 l0 4 14.5 0 14.5 0 0 -7.7z"/>
 </g>
 <g fill="#4472c4">
  <path d="M148.2 318 c-21 -2.7 -42.5 -10.2 -59 -20.7 -28.9 -18.4 -50.9 -45.9 -62.1 -77.6 l-3 -8.7 18.3 0 18.4 0 4 8.5 c21.7 45.1 69.2 70.8 116.7 63 11.2 -1.8 17.5 -3.7 27.9 -8.2 46.1 -20.3 74 -72.2 66.1 -123.3 -1.9 -12.8 -4.9 -22.8 -9.6 -32.9 -8.2 -17.6 -21.2 -33.6 -36.2 -44.5 l-6.7 -5 0 -19.3 c0 -10.6 0.2 -19.3 0.5 -19.3 1 0 14.2 6.8 18.5 9.5 27.6 17.4 51.4 47.7 61.3 78 15.6 47.6 9.3 96.2 -17.7 136.3 -18.1 26.9 -44.4 47.3 -74.6 57.5 -17.8 6.1 -44.8 8.9 -62.8 6.7z"/>
  <path d="M158 261.4 c-11.3 -2.2 -21.4 -7.7 -30.3 -16.7 -7.6 -7.5 -12.6 -16.7 -15.1 -27.4 l-1.4 -6.3 17.8 0 17.8 0 1.2 3 c1.6 3.9 7 9.3 11.4 11.4 6.6 3.1 15.1 1.6 20.8 -3.8 7.7 -7.3 7.3 -2.7 7.6 -72.8 l0.3 -62.8 17.4 0 17.5 0 0 62.3 c0 58.4 -0.1 62.9 -1.9 69.9 -2.9 11.2 -7.3 19 -14.9 26.7 -11.4 11.3 -21.7 16 -36.7 16.6 -4.9 0.2 -10.1 0.1 -11.5 -0.1z"/>
  <path d="M18 169 c0 -15.8 3.2 -34.8 8.7 -51.5 9.9 -30.3 33 -59.7 60.9 -77.7 6.8 -4.4 23.4 -12.4 31.4 -15.1 14.3 -4.9 27.1 -7 44 -7.1 8.5 0 17.6 0.3 20.3 0.7 l4.7 0.8 0 17.6 0 17.5 -6.2 -0.9 c-7.7 -1 -29.3 -1 -33 0 l-2.8 0.7 0 61 0 61 -17.5 0 -17.5 0 0 -54.5 c0 -30 -0.3 -54.5 -0.6 -54.5 -1.2 0 -11.1 7.1 -17.2 12.3 -24.8 21 -40.2 55.1 -40.2 89 l0 7.7 -17.5 0 -17.5 0 0 -7z"/>
 </g>
</svg>